<svg width="1400" height="468" viewBox="0 0 1400 468" fill="none" xmlns="http://www.w3.org/2000/svg"><g clip-path="url(#a)"><path fill="#fff" d="M0 0h1400v468H0z"/><path d="M934 468c0-129.235 104.77-234 234-234h232v234H934Z" fill="#008060"/><path d="M934 468c0-129.235 104.77-234 234-234h232v234H934Z" fill="url(#b)"/><path d="M934 0c0 129.235 104.77 234 234 234h232V0H934Z" fill="#42474C"/><circle cx="1400" r="234" fill="#008060"/><circle cx="1400" r="234" fill="url(#c)"/><circle cx="700" r="234" fill="#42474C"/><path d="M817 0c0-64.617-52.383-117-117-117-64.617 0-117 52.383-117 117 0 64.617 52.383 117 117 117 38.814 0 73.214-18.9 94.498-48H934V0H817Z" fill="#008060"/><path d="M817 0c0-64.617-52.383-117-117-117-64.617 0-117 52.383-117 117 0 64.617 52.383 117 117 117 38.814 0 73.214-18.9 94.498-48H934V0H817Z" fill="url(#d)"/><circle cx="934" cy="234" r="234" fill="#F5C666"/><circle cx="934" cy="234" r="234" fill="url(#e)"/><path d="M1168 234c0 129.235-104.77 234-234 234 0-129.235 104.77-234 234-234Z" fill="#FFA781"/><path d="M1168 234c0 129.235-104.77 234-234 234 0-129.235 104.77-234 234-234Z" fill="url(#f)"/><path d="M934 0c0 129.235-104.765 234-234 234 129.235 0 234 104.765 234 234 0-129.235 104.77-234 234-234-129.23 0-234-104.765-234-234Z" fill="#fff"/></g><defs><linearGradient id="b" x1="934" y1="234" x2="1400" y2="468" gradientUnits="userSpaceOnUse"><stop stop-color="#019E76"/><stop offset="1" stop-color="#008060"/></linearGradient><linearGradient id="c" x1="1072.5" y1="171" x2="1400" y2="0" gradientUnits="userSpaceOnUse"><stop stop-color="#019D76"/><stop offset="1" stop-color="#018060"/></linearGradient><linearGradient id="d" x1="689" y1="0" x2="805" y2="116" gradientUnits="userSpaceOnUse"><stop stop-color="#008060"/><stop offset="1" stop-color="#00B084"/></linearGradient><radialGradient id="e" cx="0" cy="0" r="1" gradientUnits="userSpaceOnUse" gradientTransform="matrix(0 234 -234 0 934 234)"><stop stop-color="#FFD59B"/><stop offset="1" stop-color="#F2B537" stop-opacity=".65"/></radialGradient><radialGradient id="f" cx="0" cy="0" r="1" gradientUnits="userSpaceOnUse" gradientTransform="matrix(0 234 -234 0 934 234)"><stop stop-color="#FFA781"/><stop offset="1" stop-color="#FF996C"/></radialGradient><clipPath id="a"><path fill="#fff" d="M0 0h1400v468H0z"/></clipPath></defs></svg>